<?xml version="1.0" standalone="no"?>
<!DOCTYPE svg PUBLIC "-//W3C//DTD SVG 20010904//EN"
 "http://www.w3.org/TR/2001/REC-SVG-20010904/DTD/svg10.dtd">
<svg version="1.0" xmlns="http://www.w3.org/2000/svg"
 width="386.000000pt" height="386.000000pt" viewBox="0 0 386.000000 386.000000"
 preserveAspectRatio="xMidYMid meet">
<metadata>
Created by potrace 1.11, written by Peter Selinger 2001-2013
</metadata>
<g transform="translate(0.000000,386.000000) scale(0.100000,-0.100000)"
fill="#000000" stroke="none">
<path d="M2916 3049 c-200 -29 -351 -105 -428 -216 -133 -194 -89 -426 106
-570 101 -75 210 -116 339 -128 201 -20 291 -52 378 -138 173 -172 162 -434
-27 -621 -136 -135 -319 -207 -534 -209 -354 -3 -584 137 -628 383 -15 83 -7
227 23 380 16 87 28 136 73 315 56 219 70 313 68 451 -3 116 -34 187 -105 239
-166 123 -537 122 -778 -1 -47 -24 -98 -44 -113 -44 -16 0 -51 16 -81 37 -110
75 -237 104 -434 98 -284 -9 -471 -116 -569 -326 -39 -83 -196 -681 -196 -746
0 -69 56 -103 168 -103 79 0 158 32 189 76 13 18 54 158 106 363 92 354 102
380 171 422 48 30 104 42 191 42 90 0 165 -25 185 -63 21 -39 12 -94 -69 -419
-90 -355 -90 -359 -31 -398 43 -30 164 -32 225 -4 47 21 92 70 101 109 11 47
154 616 160 634 8 26 66 84 104 103 128 66 336 46 370 -35 12 -30 8 -60 -48
-349 -35 -175 -72 -371 -83 -437 -11 -65 -22 -130 -25 -144 -16 -71 -13 -227
5 -295 42 -164 140 -312 281 -426 118 -96 315 -182 465 -204 22 -3 46 -8 52
-10 44 -15 371 -24 454 -13 99 14 230 58 339 115 522 276 703 920 355 1268
-111 111 -223 159 -452 194 -307 47 -431 136 -376 271 44 108 123 128 301 77
155 -45 240 -31 277 46 21 45 22 62 5 120 -9 34 -23 56 -46 73 -36 28 -144 68
-209 79 -66 11 -196 13 -259 4z"/>
</g>
</svg>
